<?xml version="1.0" encoding="UTF-8"?>
<svg id="Layer_2" data-name="Layer 2" xmlns="http://www.w3.org/2000/svg" viewBox="0 0 249.16 226.07">
  <defs>
    <style>
      .cls-1 {
        fill: #efeae0;
      }
    </style>
  </defs>
  <g id="Layer_1-2" data-name="Layer 1">
    <path class="cls-1" d="M89.52,106.01c3.63-14.52,15.3-27.72,15.3-27.72l-4.78-7.64-66.92,22.95C-10.85,111.75-2.17,142.4,9.22,149.98c5.74,3.83,20.08,8.61,20.08,8.61l-1.91,22.94h52.69l4.27-9.5,8.55,9.5h4.28s-10.52-64.05-7.65-75.52ZM29.3,146.16s-15.19-.42-17.21-10.52c-3.82-19.12,20.07-29.63,20.07-29.63l-2.87,40.15ZM78.05,108.88c-.7,8.33,3.66,42.91,6.09,61.2l-45.28-.02,4.78-67.88,43.02-15.29s-7.28,6.09-8.61,21.99Z"/>
    <path class="cls-1" d="M234.94,74.95h-72.11s-23.53,31.09-11.05,48.76c8.43,11.95,22.89,14.68,31.96,15.79,9.47.04,9.14,10.13,9.14,10.13v20.91h-21.03v10.99h53.54v-10.99h-21.03v-20.91s.02-10.21,9.7-10.2c9.24-1.19,23.14-4.01,31.41-15.72,12.48-17.67-10.52-48.76-10.52-48.76ZM234.94,117.96c-9.56,13.38-36.32,12.43-36.32,12.43,0,0-26.77.96-36.32-12.43-5.94-8.32-.47-21.89,4.97-31.57l61.94.03s15.75,17.52,5.73,31.54Z"/>
    <polygon class="cls-1" points="143.25 36.33 143.25 0 107.88 0 107.88 36.33 74.43 36.33 74.43 68.83 107.88 68.83 107.88 174.88 122.15 155.82 118.88 155.82 118.88 58.31 84.95 58.31 84.95 46.84 118.88 46.84 118.88 10.52 132.25 10.52 132.25 46.84 166.18 46.84 166.18 58.31 132.25 58.31 132.25 155.82 129.12 155.82 143.25 174.88 143.25 68.83 176.7 68.83 176.7 36.33 143.25 36.33"/>
    <path class="cls-1" d="M150.42,177.8l-24.86-43.02-24.85,43.02-31.55-43.02,7.65,91.29h97.5l7.64-91.29-31.54,43.02ZM163.69,215.09h-76.37s-2.87-40.16-2.87-40.16l17.2,21.99,23.9-40.63,23.9,40.63,17.21-21.99-2.97,40.16Z"/>
    <path class="cls-1" d="M211.72,199.14c5.9,0,10.61,4.8,10.61,10.8s-4.71,10.84-10.66,10.84-10.7-4.75-10.7-10.84,4.8-10.8,10.7-10.8h.05ZM211.67,200.82c-4.75,0-8.64,4.09-8.64,9.12s3.89,9.16,8.69,9.16c4.8.05,8.64-4.03,8.64-9.12s-3.84-9.17-8.64-9.17h-.05ZM209.65,216.23h-1.92v-12.05c1.01-.14,1.97-.28,3.41-.28,1.82,0,3.02.38,3.74.91.72.53,1.11,1.34,1.11,2.5,0,1.58-1.06,2.54-2.35,2.93v.09c1.05.19,1.77,1.15,2.02,2.93.29,1.87.57,2.59.77,2.98h-2.02c-.29-.39-.57-1.49-.82-3.08-.29-1.53-1.05-2.11-2.59-2.11h-1.34v5.19ZM209.65,209.56h1.39c1.59,0,2.93-.58,2.93-2.07,0-1.05-.77-2.11-2.93-2.11-.62,0-1.05.05-1.39.09v4.09Z"/>
  </g>
</svg>